<svg width="24" height="24" viewBox="0 0 24 24" fill="none" xmlns="http://www.w3.org/2000/svg">
<g filter="url(#filter0_ii_8_5750)">
<path d="M12 3.5C7.30558 3.5 3.5 7.30558 3.5 12C3.5 16.6944 7.30558 20.5 12 20.5C16.4176 20.5 20.0476 17.1303 20.4608 12.8207C20.4801 12.6202 20.377 12.4277 20.1995 12.3324C20.0219 12.2372 19.8045 12.2578 19.6481 12.3848C18.7884 13.0824 17.6937 13.5 16.5 13.5C13.7386 13.5 11.5 11.2614 11.5 8.5C11.5 6.8599 12.2892 5.40423 13.5106 4.49167C13.6721 4.37101 13.7453 4.16516 13.6963 3.96961C13.6473 3.77406 13.4857 3.62706 13.2864 3.59678C12.8666 3.53302 12.437 3.5 12 3.5Z" fill="black"/>
</g>
<defs>
<filter id="filter0_ii_8_5750" x="-1" y="0" width="26" height="25" filterUnits="userSpaceOnUse" color-interpolation-filters="sRGB">
<feFlood flood-opacity="0" result="BackgroundImageFix"/>
<feBlend mode="normal" in="SourceGraphic" in2="BackgroundImageFix" result="shape"/>
<feColorMatrix in="SourceAlpha" type="matrix" values="0 0 0 0 0 0 0 0 0 0 0 0 0 0 0 0 0 0 127 0" result="hardAlpha"/>
<feOffset dx="-1" dy="1"/>
<feGaussianBlur stdDeviation="1"/>
<feComposite in2="hardAlpha" operator="arithmetic" k2="-1" k3="1"/>
<feColorMatrix type="matrix" values="0 0 0 0 0.156863 0 0 0 0 0.0980392 0 0 0 0 0.0627451 0 0 0 0.3 0"/>
<feBlend mode="normal" in2="shape" result="effect1_innerShadow_8_5750"/>
<feColorMatrix in="SourceAlpha" type="matrix" values="0 0 0 0 0 0 0 0 0 0 0 0 0 0 0 0 0 0 127 0" result="hardAlpha"/>
<feOffset dx="1" dy="1"/>
<feGaussianBlur stdDeviation="0.5"/>
<feComposite in2="hardAlpha" operator="arithmetic" k2="-1" k3="1"/>
<feColorMatrix type="matrix" values="0 0 0 0 0.7 0 0 0 0 0.7 0 0 0 0 0.7 0 0 0 0.25 0"/>
<feBlend mode="normal" in2="effect1_innerShadow_8_5750" result="effect2_innerShadow_8_5750"/>
</filter>
</defs>
</svg>
